<svg xmlns="http://www.w3.org/2000/svg" version="1.0" width="512.000000pt" height="512.000000pt" viewBox="0 0 512.000000 512.000000" preserveAspectRatio="xMidYMid meet"><metadata fill="#61dafb">Created by potrace 1.16, written by Peter Selinger 2001-2019</metadata><g transform="translate(0.000000,512.000000) scale(0.100000,-0.100000)" fill="#61dafb" stroke="none"><path d="M3892 4940 c-189 -50 -371 -195 -450 -360 -54 -114 -72 -178 -79 -282 -6 -83 -5 -87 20 -112 l26 -26 191 0 c186 0 192 1 214 23 15 15 25 40 29 74 7 59 28 105 66 146 89 97 253 97 342 0 56 -60 63 -86 67 -250 l4 -153 -537 0 -536 0 -24 -25 -25 -24 0 -377 c0 -297 -3 -375 -12 -371 -253 114 -450 154 -707 144 -218 -9 -371 -50 -561 -149 -147 -76 -140 -66 -90 -143 23 -36 44 -65 47 -65 2 0 35 18 71 39 352 205 792 212 1175 20 l77 -39 0 -95 0 -95 -56 36 c-92 59 -213 112 -319 141 -90 24 -117 27 -275 27 -150 0 -187 -3 -256 -22 -263 -71 -482 -228 -618 -443 l-17 -27 65 -46 66 -45 54 73 c176 238 458 370 751 352 466 -29 800 -347 841 -802 5 -61 -3 -158 -22 -250 -6 -31 -5 -32 47 -47 114 -33 104 -36 118 30 20 92 25 273 11 360 -24 151 -89 317 -166 426 -19 26 -34 49 -34 52 0 3 227 5 505 5 l505 0 0 -40 0 -40 160 0 160 0 0 40 0 40 100 0 c156 0 140 -77 140 680 0 627 0 640 -20 660 -16 16 -33 20 -80 20 l-60 0 0 173 c0 140 -4 189 -20 251 -63 248 -268 453 -516 516 -103 27 -270 26 -372 0z m321 -159 c130 -34 233 -99 305 -195 94 -124 122 -225 122 -438 l0 -148 -79 0 -79 0 -3 168 -4 168 -38 76 c-42 85 -106 151 -182 187 -217 102 -472 -2 -551 -226 l-19 -53 -77 0 c-91 0 -92 1 -55 103 33 92 70 150 134 213 143 141 335 193 526 145z m587 -1461 l0 -520 -720 0 -720 0 0 520 0 520 720 0 720 0 0 -520z" fill="#61dafb"/><path d="M3997 3666 c-60 -22 -104 -62 -132 -120 -22 -45 -26 -66 -23 -115 3 -60 3 -61 -43 -108 -57 -59 -82 -102 -103 -172 -24 -82 -21 -137 9 -166 l24 -25 351 0 351 0 24 25 c30 29 33 84 9 166 -20 67 -46 110 -104 173 -44 47 -45 50 -42 106 6 93 -46 183 -131 227 -43 22 -143 27 -190 9z" fill="#61dafb"/><path d="M903 4621 c-104 -38 -180 -107 -231 -211 l-27 -55 -5 -339 -5 -339 -42 -12 c-98 -29 -190 -111 -241 -215 l-27 -55 -3 -537 -3 -538 80 0 80 0 3 503 c3 486 4 503 24 547 23 50 64 94 106 116 l28 15 0 -631 0 -630 80 0 80 0 2 1033 c3 985 4 1034 22 1067 26 49 64 88 111 113 l40 22 1113 3 1112 2 0 80 0 80 -1122 0 c-1069 -1 -1125 -2 -1175 -19z" fill="#61dafb"/><path d="M1040 4240 l0 -80 80 0 80 0 0 80 0 80 -80 0 -80 0 0 -80z" fill="#61dafb"/><path d="M1360 4240 l0 -80 80 0 80 0 0 80 0 80 -80 0 -80 0 0 -80z" fill="#61dafb"/><path d="M1680 4240 l0 -80 80 0 80 0 0 80 0 80 -80 0 -80 0 0 -80z" fill="#61dafb"/><path d="M1040 3920 l0 -80 1000 0 1000 0 0 80 0 80 -1000 0 -1000 0 0 -80z" fill="#61dafb"/><path d="M2426 3655 c-120 -25 -238 -72 -343 -137 l-33 -19 40 -59 c22 -32 44 -61 49 -65 5 -3 39 11 74 30 149 82 328 118 484 97 105 -14 212 -48 300 -97 35 -19 68 -33 72 -31 4 3 26 32 49 65 l42 60 -61 36 c-77 45 -156 78 -250 105 -97 28 -322 36 -423 15z" fill="#61dafb"/><path d="M2420 2703 c-51 -8 -157 -46 -210 -74 -143 -76 -234 -176 -316 -347 -31 -65 -72 -131 -95 -157 l-42 -45 -778 0 c-766 0 -779 0 -799 -20 -19 -19 -20 -33 -20 -380 0 -434 -12 -400 140 -400 l100 0 0 -40 0 -40 160 0 160 0 0 40 0 40 559 0 560 0 57 -60 c31 -33 60 -60 63 -60 4 0 36 27 73 60 l66 60 108 0 109 0 -113 -113 -112 -112 58 -58 58 -57 235 237 c246 249 300 312 374 438 52 88 118 238 136 308 41 166 -49 350 -210 430 -63 31 -70 32 -186 32 -111 0 -124 -2 -173 -28 -102 -52 -173 -130 -208 -228 l-18 -49 -88 0 c-78 0 -105 8 -80 24 5 3 25 45 45 93 20 48 57 113 81 145 58 72 157 143 249 176 62 22 89 26 192 27 131 0 180 -11 287 -67 78 -41 180 -149 218 -231 42 -89 63 -196 55 -277 -14 -139 -117 -375 -238 -547 -36 -51 -145 -172 -259 -288 l-197 -201 57 -57 58 -58 205 208 c232 236 306 334 404 528 92 185 126 294 133 425 4 86 1 121 -17 190 -64 259 -258 454 -517 520 -73 19 -247 26 -324 13z m218 -485 c69 -17 136 -87 152 -160 11 -50 10 -63 -9 -127 -28 -92 -103 -239 -166 -325 l-50 -68 -3 133 c-3 130 -2 133 32 213 42 100 60 156 52 163 -13 13 -147 32 -229 33 l-88 0 23 41 c51 91 161 129 286 97z m-238 -538 l0 -240 -1040 0 -1040 0 0 240 0 240 1040 0 1040 0 0 -240z" fill="#61dafb"/><path d="M480 1680 l0 -80 80 0 80 0 0 80 0 80 -80 0 -80 0 0 -80z" fill="#61dafb"/><path d="M800 1680 l0 -80 80 0 80 0 0 80 0 80 -80 0 -80 0 0 -80z" fill="#61dafb"/><path d="M1120 1680 l0 -80 80 0 80 0 0 80 0 80 -80 0 -80 0 0 -80z" fill="#61dafb"/><path d="M1440 1680 l0 -80 80 0 80 0 0 80 0 80 -80 0 -80 0 0 -80z" fill="#61dafb"/><path d="M4320 1720 l0 -760 80 0 80 0 0 760 0 760 -80 0 -80 0 0 -760z" fill="#61dafb"/><path d="M4640 1640 l0 -840 -752 -2 -753 -3 -50 -27 c-28 -14 -73 -45 -100 -67 -28 -23 -66 -46 -85 -51 -46 -13 -634 -13 -680 0 -19 5 -57 28 -85 51 -27 22 -72 53 -100 67 l-50 27 -753 3 -752 2 0 160 0 160 -80 0 -80 0 0 -160 0 -160 -60 0 c-98 0 -100 -4 -100 -215 0 -151 3 -181 21 -229 25 -67 86 -133 154 -166 l50 -25 2162 -3 2162 -2 55 21 c67 25 133 86 166 154 23 47 25 62 28 237 3 177 2 188 -17 207 -17 17 -34 21 -81 21 l-60 0 0 840 0 840 -80 0 -80 0 0 -840z m-2686 -1014 c19 -8 59 -34 89 -59 101 -82 101 -82 522 -82 l370 0 56 26 c31 15 74 43 96 63 78 70 27 66 913 66 l800 0 0 -93 c0 -119 -23 -171 -90 -205 l-44 -22 -2109 0 c-2349 0 -2148 -6 -2205 68 -25 33 -27 44 -30 144 l-4 108 801 0 c667 0 807 -2 835 -14z" fill="#61dafb"/><path d="M3301 1515 c-62 -130 -153 -270 -253 -391 l-76 -91 52 -52 c28 -28 57 -51 64 -51 17 0 156 171 231 285 59 90 181 318 181 338 0 4 -24 18 -52 31 -101 44 -90 49 -147 -69z" fill="#61dafb"/><path d="M640 1040 l0 -80 80 0 80 0 0 80 0 80 -80 0 -80 0 0 -80z" fill="#61dafb"/></g></svg>